<?xml version="1.0" encoding="utf-8"?>
<!-- Generator: Adobe Illustrator 24.0.0, SVG Export Plug-In . SVG Version: 6.00 Build 0)  -->
<svg version="1.1" id="图层_1" xmlns="http://www.w3.org/2000/svg" xmlns:xlink="http://www.w3.org/1999/xlink" x="0px" y="0px"
	 viewBox="0 0 200 200" style="enable-background:new 0 0 200 200;" xml:space="preserve">
<style type="text/css">
	.st0{fill:#BCBCBC;}
</style>
<g>
	<path class="st0" d="M94.3,28.5c-1-2.6-2.9-4-5.8-4H57.3c-3.3,0-5.4,2-5.5,5.1c-0.2,6.3-0.7,8.3-1.4,10.4L7.9,175.2
		c0,0.1-0.1,0.2-0.1,0.3c-0.2,0.9-0.7,3.1,1,4.8c1.6,1.7,3.9,1.7,4.7,1.7h21.7c2.1,0,5.1-0.5,6.3-4.3l11.1-38
		c6.5,0,21.5,0.1,32.3,0.1c3.5,0,6.6,0,8.8,0c0.1,0,0.3,0,0.4,0l11.5,38c0,0.2,0.1,0.3,0.2,0.4c0.7,1.6,2.3,3.6,6.1,3.6h24.8
		c2.5,0,3.9-1.1,4.7-1.8c0.7-0.9,1.5-2.4,0.7-4.7C141.9,175.3,94.3,28.5,94.3,28.5z M85.5,110.2H60.6c4.4-14.4,9-30.3,12.5-43.8
		c2.2,8.1,4.9,17.4,7.4,25.9C82.3,98.9,84.1,105.1,85.5,110.2z"/>
	<path class="st0" d="M172.4,55.5c0.2,0,0.4,0,0.5,0c11.9,0,19.7-7.6,19.7-19.3c0-11.3-8-19.3-19.3-19.3c-11.2,0-19.3,8-19.3,19.3
		C153.9,47.9,161.2,55.5,172.4,55.5z"/>
	<path class="st0" d="M185.1,63.7h-23.5c-3.8,0-6.1,2.1-6.1,5.5l0.2,107.2c0,3.3,2.4,5.5,6.1,5.5h23.3c3.8,0,6.1-2.1,6.1-5.5V69.3
		C191.2,65.9,188.9,63.7,185.1,63.7z"/>
</g>
</svg>
