<?xml version="1.0" encoding="utf-8"?>
<!-- Generator: Adobe Illustrator 24.0.0, SVG Export Plug-In . SVG Version: 6.00 Build 0)  -->
<svg version="1.1" id="图层_1" xmlns="http://www.w3.org/2000/svg" xmlns:xlink="http://www.w3.org/1999/xlink" x="0px" y="0px"
	 viewBox="0 0 200 200" style="enable-background:new 0 0 200 200;" xml:space="preserve">
<style type="text/css">
	.st0{fill:#BCBCBC;}
</style>
<path class="st0" d="M8.4,164.6V29.5h51.1c10.4-0.8,20.8,3.4,28.6,11.2c7,7.8,10.4,18.2,9.6,28.6c0,26.8-13.8,40.7-42.4,40.7H42.2
	v55.4H8.4V164.6z M42.2,53.7v32h6c8.6,0,13-5.2,13-15.6s-4.4-15.6-13-15.6C48.2,54.6,42.2,53.7,42.2,53.7z M101,128.8h33.6
	c0,4.1,1,8.1,3,11.2c2.1,3,5.1,4.1,8.1,4.1s6.1-1,8.1-3c2.1-2.1,3-4.1,3-7.2c0-5.1-5.1-9.1-14.2-13.2c-9.1-3-18.3-6.1-26.5-11.2
	c-10.2-6.1-15.3-17.2-14.2-28.5c0-10.2,4.1-19.3,11.2-25.5c10.2-7.2,22.3-11.2,34.6-10.2c29.5,0,43.7,12.3,43.7,36.7h-33.6
	c0-8.1-3-13.2-10.2-13.2c-6.1,0-10.2,3-10.2,9.1c0,5.1,5.1,9.1,14.2,12.3c9.1,2.1,18.3,6.1,26.5,10.2c10.2,6.1,15.3,17.2,14.2,28.5
	c0,10.2-4.1,20.4-12.3,27.4c-10.2,8.1-22.3,12.3-34.6,11.2C116.3,167.4,101,155.3,101,128.8L101,128.8z"/>
</svg>
