<?xml version="1.0" encoding="utf-8"?>
<!-- Generator: Adobe Illustrator 24.0.0, SVG Export Plug-In . SVG Version: 6.00 Build 0)  -->
<svg version="1.1" id="图层_1" xmlns="http://www.w3.org/2000/svg" xmlns:xlink="http://www.w3.org/1999/xlink" x="0px" y="0px"
	 viewBox="0 0 200 200" style="enable-background:new 0 0 200 200;" xml:space="preserve">
<style type="text/css">
	.st0{fill:#BCBCBC;}
</style>
<path class="st0" d="M193.3,76c-3.6-13.4-9.7-23.7-23.1-23.7h-17.6v20.7c0,15.8-13.4,29.2-29.2,29.2H77.5
	c-12.8,0-23.1,10.9-23.1,23.7v44.1c0,12.8,10.9,20.1,23.1,23.7c14.6,4.3,28.6,4.9,45.9,0c11.5-3.6,23.1-10.3,23.1-23.7v-17.6h-45.9
	v-6.1h69c13.4,0,18.2-9.7,23.1-23.7C198.2,108.8,198.2,94.8,193.3,76z M126.7,164.4c4.9,0,8.5,4.3,8.5,9.1s-3.6,9.1-8.5,9.1
	s-8.5-4.3-8.5-9.1C118.2,168.1,122.5,164.4,126.7,164.4z M76,96.7h45.9c12.8,0,23.1-10.9,23.1-23.7V28.9c0-12.8-10.3-21.9-23.1-24.3
	c-15.8-2.4-32.2-2.4-45.9,0C56.5,8.2,52.9,15.5,52.9,28.9v17.6h45.9v6.1H35.3c-13.4,0-25.5,7.9-29.2,23.7c-4.3,17.6-4.3,28.6,0,47.1
	c3,14,10.9,23.7,24.9,23.7h15.8v-21.3C46.8,110.6,60.2,96.7,76,96.7z M72.9,35.6c-4.9,0-8.5-4.3-8.5-9.1s3.6-9.1,8.5-9.1
	c4.9,0,8.5,4.3,8.5,9.1C81.2,31.3,77.5,35.6,72.9,35.6z"/>
</svg>
