<?xml version="1.0" encoding="utf-8"?>
<!-- Generator: Adobe Illustrator 24.0.0, SVG Export Plug-In . SVG Version: 6.00 Build 0)  -->
<svg version="1.1" id="图层_1" xmlns="http://www.w3.org/2000/svg" xmlns:xlink="http://www.w3.org/1999/xlink" x="0px" y="0px"
	 viewBox="0 0 200 200" style="enable-background:new 0 0 200 200;" xml:space="preserve">
<style type="text/css">
	.st0{fill:#BCBCBC;}
</style>
<path class="st0" d="M116.1,73.8c-17.2,0-31.2,14.1-31.2,31.4s14,31.2,31.2,31.2s30.9-13.8,30.9-31.2S133.3,73.8,116.1,73.8
	L116.1,73.8z M179.3,39.3h-25.4c-6.8-8.7-14.6-18.7-14.7-18.7H83.8c-0.1,0-8.1,10-14.9,18.7H20.7c-9.3,0-16.8,7.5-16.8,16.8v97.8
	c0,9.3,7.5,16.8,16.8,16.8h158.7c9.3,0,16.8-7.5,16.8-16.8V56.1C196.1,46.9,188.6,39.3,179.3,39.3L179.3,39.3z M46.1,81.8
	c-5.3,0-9.6-4.3-9.6-9.5c0-5.3,4.3-9.6,9.6-9.6s9.5,4.3,9.5,9.6C55.6,77.6,51.3,81.8,46.1,81.8z M116.6,147.2
	c-23.2,0-42.7-18.9-42.7-42.3c0-23.3,19.5-42.3,42.7-42.3s41.8,18.9,41.8,42.3C158.4,128.2,139.8,147.2,116.6,147.2z"/>
</svg>
